<svg width="40" height="40" viewBox="0 0 40 40" fill="none" xmlns="http://www.w3.org/2000/svg">
<path d="M30.4577 3.90955C30.1953 3.77154 29.9001 3.7081 29.6041 3.72615C29.3082 3.7442 29.0228 3.84304 28.7791 4.01193L7.65412 18.6369C7.4389 18.7871 7.26314 18.9871 7.14177 19.2198C7.02041 19.4525 6.95703 19.711 6.95703 19.9735C6.95703 20.2359 7.02041 20.4945 7.14177 20.7272C7.26314 20.9599 7.4389 21.1599 7.65412 21.3101L28.7791 35.9351C29.0229 36.1037 29.3082 36.2025 29.6041 36.2207C29.9 36.2389 30.1953 36.1758 30.4579 36.0382C30.7205 35.9006 30.9404 35.6938 31.0939 35.4402C31.2474 35.1866 31.3286 34.8958 31.3287 34.5993V5.3493C31.3288 5.05268 31.2476 4.7617 31.0941 4.50791C30.9406 4.25411 30.7205 4.04719 30.4577 3.90955ZM28.0787 31.4972L11.4339 19.9743L28.0787 8.45143V31.4972Z" fill="#457C30"/>
</svg>
