<svg width="175" height="139" viewBox="0 0 175 139" fill="none" xmlns="http://www.w3.org/2000/svg">
<g clip-path="url(#clip0_21_3744)">
<path d="M45.4711 64.2105C38.5025 61.8689 31.4804 59.6868 24.5833 57.1677C12.29 52.6972 2.71265 45.548 0.729289 31.6043C-0.14625 25.4308 0.836498 19.4701 4.10637 14.0771C6.14334 10.7243 7.96589 7.42461 7.48345 3.3444C7.32263 1.99615 7.71573 0.80757 9.21666 0.293108C10.8963 -0.274574 12.0577 0.594689 12.9511 1.76553C15.542 5.17162 15.9887 9.10992 15.3812 13.1547C14.8273 16.9688 14.4699 20.7651 14.5235 24.6147C14.595 30.0432 17.3109 33.5202 22.1711 35.7555C30.7478 39.676 39.8248 40.2615 49.0448 40.1018C54.0121 40.0131 58.7114 39.0197 63.5894 37.6537C80.6356 32.8284 97.5568 33.6799 114.817 38.5229C128.612 42.3903 142.995 41.4323 155.807 33.7863C161.203 30.5576 160.881 24.4906 160.167 19.0266C159.684 15.3544 159.506 11.7177 159.541 8.04551C159.559 5.72157 160.292 3.64598 161.757 1.85423C162.668 0.736609 163.758 -0.310054 165.438 0.239888C167.1 0.78983 167.546 2.06711 167.385 3.66372C167.046 6.98111 168.082 9.89048 169.833 12.7111C178.267 26.2646 174.801 42.2661 161.525 51.5264C153.752 56.9371 144.568 59.0304 135.795 62.0463C132.239 63.2703 128.647 64.3347 125.199 65.9491C130.238 64.3879 135.348 63.6961 140.548 63.767C146.069 63.838 148.999 67.865 147.391 73.0983C144.818 81.5603 137.921 86.7049 127.718 87.2017C124.305 87.3613 122.822 88.3548 121.715 91.7076C120.035 96.8168 117.605 101.749 115.032 106.521C111.119 113.776 107.885 121.227 106.509 129.405C105.919 132.882 103.471 135.029 100.237 136.058C91.7496 138.754 83.1729 138.825 74.6855 136.076C70.8796 134.851 68.521 132.155 67.985 128.075C67.163 121.759 64.5186 115.994 61.8383 110.388C58.8186 104.055 54.9948 98.0763 53.0472 91.2819C52.1895 88.2838 50.778 87.2904 47.7046 87.2371C39.1994 87.113 32.4631 83.6714 28.4785 75.8658C24.6369 68.344 28.9074 62.4898 36.1976 63.7848C39.1815 64.317 42.237 64.4234 45.2567 64.7073C45.3282 64.5476 45.3997 64.3702 45.4711 64.2105ZM101.291 101.536C100.916 100.826 100.648 100.045 100.166 99.4423C98.7361 97.6683 97.6282 95.7701 100.094 94.1735C102.399 92.6833 103.668 94.7767 104.74 96.2491C106.491 98.6795 107.992 101.305 109.868 104.268C114.335 95.6637 118.981 87.5565 117.855 77.2318C114.156 78.9703 110.726 80.0347 107.08 77.8881C102.917 75.44 102.542 73.4531 105.848 70.0648C108.76 67.0844 112.137 64.8847 116.497 65.5765C119.517 66.0555 119.856 64.7073 119.427 62.4188C118.641 58.1967 117.641 53.9923 116.979 49.7524C116.515 46.7366 114.907 44.9448 112.191 43.7385C107.42 41.6274 102.363 40.7937 97.2351 40.3502C86.282 39.4099 75.3645 39.4809 64.7687 42.887C62.3744 43.6676 59.3547 44.4304 58.6221 47.0736C57.1748 52.2892 56.3171 57.6467 55.3165 62.9687C54.9591 64.8492 55.4058 65.9491 57.8537 65.5233C63.0712 64.6186 66.7163 67.4215 69.9505 71.0405C71.8624 73.2048 71.4514 74.961 69.3251 76.735C65.5013 79.946 61.4452 79.467 57.0854 77.3382C55.9955 87.7161 60.4625 95.8411 65.0903 104.232C66.895 101.305 68.2887 98.7682 69.9505 96.4442C71.1119 94.8121 72.4342 92.5946 74.9536 94.3332C77.5087 96.1072 75.8112 97.8812 74.5783 99.602C71.7373 103.54 69.7182 107.691 69.6289 112.801C69.5395 117.608 71.6658 119.435 76.1865 119.435C82.7798 119.418 89.391 119.524 95.9844 119.542C104.186 119.56 106.848 118.69 104.525 107.958C104.061 105.811 103.4 103.647 101.595 102.086C101.506 101.873 101.398 101.695 101.291 101.536ZM165.634 17.5187C165.759 18.9734 165.867 19.8959 165.92 20.8184C166.51 32.4026 162.865 37.8488 151.983 41.9823C145.604 44.4126 139.029 45.6012 132.221 45.6722C121.411 45.7609 121.482 45.7431 123.894 56.0679C124.502 58.6402 125.395 59.5981 128.147 58.6402C135.562 56.0501 143.085 53.7971 150.464 51.1184C155.485 49.2912 159.934 46.4173 163.49 42.3193C169.422 35.4539 170.512 24.9695 165.634 17.5187ZM8.85929 17.7316C2.87347 29.8126 7.30477 41.9113 19.2407 48.6348C25.9948 52.4311 33.5173 54.2938 40.7897 56.742C50.0275 59.8465 50.0096 59.7223 52.0823 50.4797C52.8328 47.1446 52.7435 45.3529 48.2764 45.619C38.7348 46.1866 29.4255 44.8916 20.4915 41.0952C12.826 37.8311 8.94864 32.3139 8.85929 24.0825C8.84143 22.344 8.85929 20.5877 8.85929 17.7316ZM87.6399 125.148C83.9591 125.148 80.2783 125.13 76.5974 125.148C75.5789 125.148 74.2031 124.491 73.7743 126.035C73.4169 127.294 73.4705 128.696 74.6319 129.512C75.7755 130.328 77.062 131.162 78.4021 131.445C84.2629 132.669 90.1594 132.581 96.038 131.57C97.5746 131.303 99.2006 130.771 100.255 129.476C101.077 128.483 101.684 127.259 101.113 125.946C100.523 124.58 99.2364 125.13 98.1643 125.13C94.68 125.165 91.16 125.165 87.6399 125.148ZM37.4841 69.6567C35.9831 69.639 33.964 68.5391 32.9992 70.0115C31.9449 71.6436 33.4637 73.3467 34.3393 74.8014C37.1446 79.467 41.7545 81.1168 46.8291 81.7909C48.1871 81.9683 50.0632 82.607 50.8673 81.2233C51.7428 79.7154 51.4748 77.8349 50.4027 76.2383C47.3294 71.6968 43.3984 68.823 37.4841 69.6567ZM137.063 69.6922C131.274 68.8407 127.397 71.6436 124.591 76.2028C122.858 79.0235 123.805 81.9506 126.342 81.8442C131.828 81.6313 136.867 80.2121 140.119 75.3336C141.155 73.7724 142.888 71.9984 141.888 70.1712C140.905 68.3795 138.671 69.7277 137.063 69.6922Z" fill="white" stroke="white"/>
<path d="M101.595 102.05C101.327 107.141 97.932 110.352 94.4477 113.421C93.322 114.415 91.7674 114.734 90.4809 113.617C89.4803 112.747 89.2123 111.594 89.4982 110.157C90.606 104.48 95.3589 100.932 101.291 101.536C101.398 101.695 101.506 101.873 101.595 102.05Z" fill="white" stroke="white"/>
<path d="M85.2634 110.867C85.2456 113.936 83.1371 115.213 80.5284 113.51C77.4015 111.47 75.1679 108.454 73.81 105.084C72.72 102.387 74.1316 100.791 77.2049 101.27C80.9036 101.855 85.2634 107.106 85.2634 110.867Z" fill="white" stroke="white"/>
<path d="M70.3793 59.2433C73.0417 60.4141 74.1316 62.8977 74.6677 65.541C75.025 67.2263 73.7028 68.1843 72.0947 68.3262C70.4508 68.4681 66.9665 63.767 67.2524 61.8333C67.5026 60.2367 68.5032 59.3142 70.3793 59.2433Z" fill="white" stroke="white"/>
<path d="M107.777 62.2949C106.866 64.7253 106.08 67.5991 103.096 68.291C101.363 68.6813 99.8618 66.9782 100.38 65.2575C101.113 62.7561 101.97 59.829 105.187 59.35C106.866 59.1017 107.652 60.5031 107.777 62.2949Z" fill="white" stroke="white"/>
</g>
<defs>
<clipPath id="clip0_21_3744">
<rect width="174" height="138" fill="white" transform="translate(0.425293 0.0800781)"/>
</clipPath>
</defs>
</svg>
