<svg width="144" height="144" viewBox="0 0 144 144" fill="none" xmlns="http://www.w3.org/2000/svg">
<path d="M5.87623 2.28125C7.13801 3.31207 7.69242 4.59104 7.8836 6.2518C9.64244 21.1795 17.1749 32.0031 30.9971 38.2643C31.8956 38.6652 32.8324 39.047 34.4001 39.696C30.6912 33.053 28.6838 26.5245 27.9573 19.6333C27.6515 16.8654 27.5941 14.0784 27.4794 11.2913C27.4029 9.53514 28.0912 8.12254 29.9838 8.02709C32.0868 7.91256 32.8133 9.4206 32.8706 11.2723C33.1192 18.0107 34.0751 24.5583 36.2927 30.9914C39.8104 41.1659 47.4767 45.461 57.4753 46.2054C60.993 46.4727 64.4151 44.5256 68.0857 44.3538C73.8019 44.1056 79.4035 44.4111 84.9477 46.0336C91.1036 47.828 101.599 42.5403 105.442 35.9736C109.571 28.9106 110.852 21.1223 111.273 13.1239C111.388 10.9477 110.871 7.89347 114.236 8.08436C117.563 8.29434 116.722 11.3295 116.664 13.4675C116.416 23.3557 114.867 29.3497 110.126 39.2379C111.254 39.3333 112.057 38.7798 112.917 38.398C126.892 32.1558 134.52 21.2941 136.298 6.23271C136.489 4.57195 137.044 3.29298 138.306 2.26216C138.936 2.26216 139.548 2.26216 140.179 2.26216C142.856 4.07563 141.785 6.63358 141.441 9.00064C139.51 21.7904 133.679 32.1749 122.629 39.3333C115.708 43.8193 108.061 46.6063 100.185 48.8207C98.2346 49.3742 96.2654 49.8706 93.5698 50.5769C95.386 52.2949 96.8772 53.6693 98.2919 55.0819C99.5155 56.3036 100.452 55.1392 101.293 54.6429C107.468 51.1114 113.93 49.0497 121.138 50.0042C125 50.5196 128.555 51.7604 131.748 53.9938C133.564 55.2728 134.463 56.9908 133.488 59.0715C129.55 67.3944 123.47 73.6175 114.867 77.2253C108.902 76.08 108.233 79.6306 107.889 84.3647C107.564 88.9079 105.098 92.9548 103.09 97.0208C97.2787 108.78 91.7536 120.634 88.6183 133.462C87.7771 136.879 85.2153 138.845 82.1564 140.067C75.427 142.758 68.6019 142.739 61.8915 140.029C58.6415 138.712 56.1753 136.478 55.315 132.756C52.7914 121.741 48.4134 111.414 43.3663 101.316C40.6516 95.8946 37.5927 90.6069 36.1398 84.6129C35.5854 82.3603 36.5604 79.5924 35.3559 77.9889C34.1706 76.3854 31.2265 78.0462 29.2 77.2063C20.6926 73.6748 14.7087 67.4708 10.7322 59.3006C9.52774 56.819 10.7513 54.891 12.9307 53.5548C20.4249 48.897 28.3588 48.8016 36.4457 51.6077C38.5869 52.3522 40.6707 53.383 42.5634 54.5856C44.5516 55.8646 45.8325 55.5019 47.1899 53.7075C47.9929 52.6576 49.1399 51.8749 50.5355 50.596C44.8384 48.9352 39.581 47.6753 34.5339 45.7282C24.5161 41.8722 15.5116 36.6609 9.45127 27.3835C5.81887 21.8477 3.84974 15.7009 2.72178 9.2488C2.56884 8.35161 2.32031 7.47351 2.11001 6.57631C2.11001 6.36633 2.14825 6.15635 2.11001 5.96546C1.44089 2.81575 2.68355 1.57495 5.87623 2.28125ZM72.3872 49.9469C63.0195 49.7178 54.9709 52.1994 49.4649 59.8351C41.9134 70.3151 37.9369 81.3486 45.8134 93.6611C47.6487 96.5054 48.9296 99.7124 50.4208 102.767C54.6459 111.414 58.24 120.31 60.3812 129.682C61.1651 133.061 62.9812 134.703 65.9445 135.543C69.3666 136.497 72.8461 136.593 76.3829 135.963C80.5697 135.218 83.055 133.29 84.1065 128.842C87.1844 115.785 93.1492 103.817 99.286 92.0195C103.913 83.1239 103.129 75.0683 98.789 66.4018C93.2066 55.1964 84.6227 49.546 72.3872 49.9469ZM28.3397 55.2728C23.8279 55.3873 20.8837 55.6928 18.0734 56.9526C16.4866 57.6589 16.0852 58.3843 17.194 59.9496C19.1823 62.7367 21.3808 65.3328 23.9235 67.6044C25.625 69.1124 27.422 70.506 29.525 71.4222C33.5398 73.1594 36.9045 71.804 38.5677 67.8717C39.4089 65.8864 40.3457 63.9393 41.3207 62.0113C41.7987 61.0568 41.9898 60.4269 40.7472 59.8351C36.331 57.7353 32.125 54.9101 28.3397 55.2728ZM116.033 55.311C113.567 55.1583 110.145 56.4372 106.78 58.1553C102.154 60.5223 102.135 60.446 104.295 64.9701C105.041 66.5354 105.748 68.1389 106.379 69.7615C106.78 70.7923 107.258 71.594 108.463 71.7468C111.158 72.1095 113.72 72.224 116.186 70.6205C120.583 67.7571 124.063 64.0347 127.045 59.7778C127.944 58.4989 127.714 57.8307 126.376 57.2008C123.547 55.8646 120.526 55.3492 116.033 55.311Z" fill="white" stroke="white" stroke-width="3"/>
<path d="M68.4958 120.824C68.4961 120.824 68.4976 120.831 68.499 120.845C68.4961 120.83 68.4954 120.824 68.4958 120.824ZM67.0762 122.778C67.074 122.778 67.0729 122.778 67.0729 122.778C67.0729 122.778 67.074 122.778 67.0762 122.778ZM69.1634 122.724C70.7209 122.704 72.2715 122.718 73.8804 122.732C74.1994 122.735 74.5208 122.738 74.8449 122.741C74.2656 123.321 73.7527 123.439 73.6279 123.442H73.6278H73.6248H73.6217H73.6187H73.6157H73.6127H73.6096H73.6066H73.6036H73.6006H73.5975H73.5945H73.5915H73.5885H73.5854H73.5824H73.5794H73.5764H73.5733H73.5703H73.5673H73.5643H73.5612H73.5582H73.5552H73.5522H73.5491H73.5461H73.5431H73.5401H73.537H73.534H73.531H73.528H73.525H73.5219H73.5189H73.5159H73.5129H73.5098H73.5068H73.5038H73.5008H73.4977H73.4947H73.4917H73.4887H73.4856H73.4826H73.4796H73.4766H73.4735H73.4705H73.4675H73.4645H73.4614H73.4584H73.4554H73.4524H73.4493H73.4463H73.4433H73.4403H73.4372H73.4342H73.4312H73.4282H73.4251H73.4221H73.4191H73.4161H73.413H73.41H73.407H73.404H73.4009H73.3979H73.3949H73.3919H73.3888H73.3858H73.3828H73.3798H73.3767H73.3737H73.3707H73.3677H73.3647H73.3616H73.3586H73.3556H73.3526H73.3495H73.3465H73.3435H73.3405H73.3374H73.3344H73.3314H73.3284H73.3253H73.3223H73.3193H73.3163H73.3132H73.3102H73.3072H73.3042H73.3011H73.2981H73.2951H73.2921H73.289H73.286H73.283H73.28H73.2769H73.2739H73.2709H73.2679H73.2648H73.2618H73.2588H73.2558H73.2527H73.2497H73.2467H73.2437H73.2406H73.2376H73.2346H73.2316H73.2285H73.2255H73.2225H73.2195H73.2165H73.2134H73.2104H73.2074H73.2044H73.2013H73.1983H73.1953H73.1923H73.1892H73.1862H73.1832H73.1802H73.1771H73.1741H73.1711H73.1681H73.165H73.162H73.159H73.156H73.1529H73.1499H73.1469H73.1439H73.1408H73.1378H73.1348H73.1318H73.1287H73.1257H73.1227H73.1197H73.1166H73.1136H73.1106H73.1076H73.1045H73.1015H73.0985H73.0955H73.0924H73.0894H73.0864H73.0834H73.0803H73.0773H73.0743H73.0713H73.0682H73.0652H73.0622H73.0592H73.0562H73.0531H73.0501H73.0471H73.0441H73.041H73.038H73.035H73.032H73.0289H73.0259H73.0229H73.0199H73.0168H73.0138H73.0108H73.0078H73.0047H73.0017H72.9987H72.9957H72.9926H72.9896H72.9866H72.9836H72.9805H72.9775H72.9745H72.9715H72.9684H72.9654H72.9624H72.9594H72.9563H72.9533H72.9503H72.9473H72.9442H72.9412H72.9382H72.9352H72.9321H72.9291H72.9261H72.9231H72.92H72.917H72.914H72.911H72.908H72.9049H72.9019H72.8989H72.8959H72.8928H72.8898H72.8868H72.8838H72.8807H72.8777H72.8747H72.8717H72.8686H72.8656H72.8626H72.8596H72.8565H72.8535H72.8505H72.8475H72.8444H72.8414H72.8384H72.8354H72.8323H72.8293H72.8263H72.8233H72.8202H72.8172H72.8142H72.8112H72.8081H72.8051H72.8021H72.7991H72.796H72.793H72.79H72.787H72.7839H72.7809H72.7779H72.7749H72.7718H72.7688H72.7658H72.7628H72.7598H72.7567H72.7537H72.7507H72.7477H72.7446H72.7416H72.7386H72.7356H72.7325H72.7295H72.7265H72.7235H72.7204H72.7174H72.7144H72.7114H72.7083H72.7053H72.7023H72.6993H72.6962H72.6932H72.6902H72.6872H72.6841H72.6811H72.6781H72.6751H72.672H72.669H72.666H72.663H72.6599H72.6569H72.6539H72.6509H72.6478H72.6448H72.6418H72.6388H72.6357H72.6327H72.6297H72.6267H72.6236H72.6206H72.6176H72.6146H72.6115H72.6085H72.6055H72.6025H72.5995H72.5964H72.5934H72.5904H72.5874H72.5843H72.5813H72.5783H72.5753H72.5722H72.5692H72.5662H72.5632H72.5601H72.5571H72.5541H72.5511H72.548H72.545H72.542H72.539H72.5359H72.5329H72.5299H72.5269H72.5238H72.5208H72.5178H72.5148H72.5117H72.5087H72.5057H72.5027H72.4996H72.4966H72.4936H72.4906H72.4875H72.4845H72.4815H72.4785H72.4754H72.4724H72.4694H72.4664H72.4633H72.4603H72.4573H72.4543H72.4513H72.4482H72.4452H72.4422H72.4392H72.4361H72.4331H72.4301H72.4271H72.424H72.421H72.418H72.415H72.4119H72.4089H72.4059H72.4029H72.3998H72.3968H72.3938H72.3908H72.3877H72.3847H72.3817H72.3787H72.3756H72.3726H72.3696H72.3666H72.3635H72.3605H72.3575H72.3545H72.3514H72.3484H72.3454H72.3424H72.3393H72.3363H72.3333H72.3303H72.3272H72.3242H72.3212H72.3182H72.3151H72.3121H72.3091H72.3061H72.3031H72.3H72.297H72.294H72.291H72.2879H72.2849H72.2819H72.2789H72.2758H72.2728H72.2698H72.2668H72.2637H72.2607H72.2577H72.2547H72.2516H72.2486H72.2456H72.2426H72.2395H72.2365H72.2335H72.2305H72.2274H72.2244H72.2214H72.2184H72.2153H72.2123H72.2093H72.2063H72.2032H72.2002H72.1972H72.1942H72.1911H72.1881H72.1851H72.1821H72.179H72.176H72.173H72.17H72.1669H72.1639H72.1609H72.1579H72.1548H72.1518H72.1488H72.1458H72.1428H72.1397H72.1367H72.1337H72.1307H72.1276H72.1246H72.1216H72.1186H72.1155H72.1125H72.1095H72.1065H72.1034H72.1004C70.7232 123.442 69.9349 123.4 69.4317 123.325C69.3526 123.168 69.2645 122.972 69.1634 122.724ZM77.354 122.757C77.3538 122.757 77.3475 122.756 77.3357 122.755C77.3483 122.755 77.3542 122.756 77.354 122.757Z" fill="white" stroke="white" stroke-width="10"/>
<mask id="path-3-inside-1_21_3751" fill="white">
<path d="M54.7223 88.5642C51.3193 88.5451 47.7825 85.0327 47.6869 81.5776C47.6104 78.9433 49.4266 77.1489 52.1414 77.168C55.659 77.1871 59.1385 80.585 59.1958 84.0783C59.215 86.6171 57.2649 88.5833 54.7223 88.5642Z"/>
</mask>
<path d="M54.7223 88.5642C51.3193 88.5451 47.7825 85.0327 47.6869 81.5776C47.6104 78.9433 49.4266 77.1489 52.1414 77.168C55.659 77.1871 59.1385 80.585 59.1958 84.0783C59.215 86.6171 57.2649 88.5833 54.7223 88.5642Z" fill="white"/>
<path d="M54.7223 88.5642L54.7973 78.5645L54.7878 78.5644L54.7784 78.5644L54.7223 88.5642ZM47.6869 81.5776L57.6831 81.301L57.6827 81.2874L47.6869 81.5776ZM52.1414 77.168L52.071 87.1678L52.0791 87.1678L52.0871 87.1679L52.1414 77.168ZM59.1958 84.0783L69.1956 84.003L69.1952 83.9585L69.1945 83.9141L59.1958 84.0783ZM54.7784 78.5644C55.6296 78.5692 56.2126 78.785 56.4954 78.9195C56.7824 79.056 56.9343 79.1879 57.0108 79.2639C57.088 79.3405 57.2084 79.4794 57.3339 79.7364C57.4574 79.9894 57.6614 80.5176 57.6831 81.301L37.6907 81.8541C37.8268 86.7711 40.2691 90.8246 42.9178 93.455C45.5554 96.0743 49.6665 98.536 54.6662 98.5641L54.7784 78.5644ZM57.6827 81.2874C57.7153 82.4125 57.3087 84.0934 55.9006 85.4865C54.5219 86.8506 52.9612 87.174 52.071 87.1678L52.2117 67.1682C48.6068 67.1429 44.7807 68.3539 41.8343 71.269C38.8585 74.2132 37.582 78.1084 37.6911 81.8678L57.6827 81.2874ZM52.0871 87.1679C50.7171 87.1604 50.0913 86.5842 49.9722 86.4676C49.8571 86.3549 49.2211 85.697 49.1972 84.2424L69.1945 83.9141C69.1133 78.9662 66.7088 74.8627 63.9603 72.1731C61.2076 69.4794 57.0832 67.1947 52.1956 67.1681L52.0871 87.1679ZM49.1961 84.1536C49.1735 81.1529 51.7166 78.5414 54.7973 78.5645L54.6472 98.5639C62.8132 98.6252 69.2564 92.0814 69.1956 84.003L49.1961 84.1536Z" fill="white" mask="url(#path-3-inside-1_21_3751)"/>
<path d="M90.3532 84.2764C90.3529 84.2766 90.3516 84.2721 90.3497 84.2623C90.3524 84.2714 90.3534 84.2763 90.3532 84.2764Z" fill="white" stroke="white" stroke-width="10"/>
</svg>
