<svg width="171" height="171" viewBox="0 0 171 171" fill="none" xmlns="http://www.w3.org/2000/svg">
<path d="M56.689 32.5708L59.6799 39.8755C61.5446 44.4177 64.0787 55.7705 63.4943 61.1255C56.2533 65.588 51.8121 69.9442 48.3855 73.578C44.1993 70.1939 35.9171 64.4458 22.1577 64.4458H16.8452V69.7583C16.8452 79.9264 20.5162 88.1874 21.8283 91.0083C20.5002 93.808 16.8452 101.777 16.8452 112.258V117.571H22.1577C35.8108 117.571 44.194 111.801 48.3908 108.439C54.6755 114.915 63.6377 121.741 74.9533 126.868C74.454 130.167 74.0608 134.773 75.4474 140.149L76.4462 144.133H80.5952C87.1508 144.133 92.798 140.877 97.3615 137.992C101.096 135.623 102.902 133.965 103.837 133.174C124.965 132.43 138.454 121.035 145.673 109.767C153.143 98.1271 154.97 86.5246 154.97 86.5246L155.135 85.1964L154.641 83.8683C154.641 83.8683 142.475 50.458 109.485 48.8377C105.978 44.5877 101.075 41.0602 94.2112 38.2127C86.0937 34.8552 75.883 32.5708 64.6577 32.5708H56.689ZM72.1271 43.8599C78.8315 44.6036 85.1002 45.9583 90.0568 48.0089C96.8462 50.8139 101.574 54.8355 102.674 56.6417L104.172 59.1333H107.158C133.699 59.1333 143.246 84.2614 144.016 86.3599C143.644 88.3096 142.103 95.7205 136.711 104.125C130.543 113.73 120.561 122.883 101.845 122.883H99.853L98.3602 124.211C98.3602 124.211 95.5552 126.602 91.7196 129.025C89.7008 130.294 87.9849 130.523 85.9077 131.351C86.1202 128.924 85.9077 125.375 85.9077 125.375L87.0712 120.726L82.7521 119.228C69.5983 114.208 58.4102 104.746 52.7046 98.1483L49.0496 93.8292L45.0652 97.8136C45.0652 97.8136 37.989 102.775 28.7983 105.118C30.169 98.8921 32.2833 93.3352 32.2833 93.3352L33.4468 91.0083L32.2833 88.6814C32.2833 88.6814 29.983 82.5827 28.6337 76.0642C38.4246 78.2264 45.0652 84.203 45.0652 84.203L49.0496 88.1874L52.7046 83.8683C57.4593 78.4974 70.2624 65.1099 89.0633 62.6183L87.5652 52.158C82.4812 52.8274 78.0452 54.2989 73.7899 55.983C73.519 51.5205 73.2905 47.6796 72.1271 43.8599ZM120.439 80.3833C118.326 80.3833 116.299 81.2229 114.804 82.7173C113.31 84.2117 112.47 86.2386 112.47 88.3521C112.47 90.4655 113.31 92.4924 114.804 93.9868C116.299 95.4812 118.326 96.3208 120.439 96.3208C122.552 96.3208 124.579 95.4812 126.074 93.9868C127.568 92.4924 128.408 90.4655 128.408 88.3521C128.408 86.2386 127.568 84.2117 126.074 82.7173C124.579 81.2229 122.552 80.3833 120.439 80.3833Z" fill="white"/>
</svg>
