<svg width="56" height="56" viewBox="0 0 56 56" fill="none" xmlns="http://www.w3.org/2000/svg">
<path d="M48.2428 19.1129C48.2197 17.3773 47.8948 15.6589 47.2826 14.0346C46.7518 12.6645 45.9409 11.4203 44.902 10.3813C43.863 9.34234 42.6187 8.53152 41.2487 8.00065C39.6453 7.39876 37.9514 7.07331 36.2391 7.03815C34.0345 6.93961 33.3355 6.91211 27.7393 6.91211C22.143 6.91211 21.4258 6.91211 19.2372 7.03815C17.5257 7.07357 15.8326 7.39902 14.2299 8.00065C12.8596 8.53115 11.6152 9.34184 10.5762 10.3809C9.53715 11.4199 8.72646 12.6643 8.19596 14.0346C7.59287 15.6368 7.26812 17.3303 7.23576 19.0419C7.13721 21.2488 7.10742 21.9477 7.10742 27.544C7.10742 33.1402 7.10742 33.8552 7.23576 36.0461C7.27013 37.7602 7.59325 39.4515 8.19596 41.0579C8.72735 42.4278 9.53864 43.6718 10.578 44.7103C11.6174 45.7489 12.8619 46.5593 14.2322 47.0896C15.8305 47.7157 17.5239 48.0644 19.2395 48.1209C21.4464 48.2194 22.1453 48.2492 27.7416 48.2492C33.3378 48.2492 34.0551 48.2492 36.2437 48.1209C37.9559 48.0871 39.6499 47.7624 41.2533 47.1607C42.623 46.6292 43.8669 45.8181 44.9058 44.7792C45.9447 43.7404 46.7557 42.4964 47.2872 41.1267C47.8899 39.5225 48.213 37.8313 48.2474 36.1148C48.346 33.9102 48.3758 33.2113 48.3758 27.6127C48.3712 22.0165 48.3712 21.3061 48.2428 19.1129ZM27.7255 38.1269C21.8726 38.1269 17.1312 33.3854 17.1312 27.5325C17.1312 21.6796 21.8726 16.9382 27.7255 16.9382C30.5354 16.9382 33.2301 18.0543 35.2169 20.0412C37.2037 22.028 38.3199 24.7227 38.3199 27.5325C38.3199 30.3423 37.2037 33.0371 35.2169 35.0239C33.2301 37.0107 30.5354 38.1269 27.7255 38.1269ZM38.7416 19.0167C38.4171 19.017 38.0957 18.9533 37.7958 18.8293C37.496 18.7052 37.2235 18.5233 36.9941 18.2938C36.7646 18.0643 36.5827 17.7919 36.4586 17.492C36.3346 17.1922 36.2709 16.8708 36.2712 16.5463C36.2712 16.222 36.335 15.9009 36.4591 15.6013C36.5832 15.3017 36.7651 15.0295 36.9944 14.8002C37.2237 14.5709 37.4959 14.3891 37.7955 14.265C38.0951 14.1409 38.4162 14.077 38.7404 14.077C39.0647 14.077 39.3858 14.1409 39.6854 14.265C39.985 14.3891 40.2572 14.5709 40.4865 14.8002C40.7158 15.0295 40.8977 15.3017 41.0218 15.6013C41.1458 15.9009 41.2097 16.222 41.2097 16.5463C41.2097 17.9121 40.1051 19.0167 38.7416 19.0167Z" fill="#2C6F2F"/>
<path d="M27.7256 34.4146C31.5264 34.4146 34.6075 31.3335 34.6075 27.5328C34.6075 23.732 31.5264 20.6509 27.7256 20.6509C23.9249 20.6509 20.8438 23.732 20.8438 27.5328C20.8438 31.3335 23.9249 34.4146 27.7256 34.4146Z" fill="#2C6F2F"/>
</svg>
