<svg width="48" height="48" viewBox="0 0 48 48" fill="none" xmlns="http://www.w3.org/2000/svg">
<path d="M45.1132 7.65109L39.0709 1.61446C38.6447 1.18636 38.1381 0.846684 37.5802 0.614957C37.0223 0.38323 36.4241 0.264015 35.82 0.26416C34.5888 0.26416 33.4314 0.74641 32.5634 1.61446L26.0615 8.11632C25.6334 8.54255 25.2937 9.04916 25.062 9.60706C24.8303 10.165 24.7111 10.7631 24.7112 11.3673C24.7112 12.5984 25.1935 13.7558 26.0615 14.6239L30.8159 19.3783C29.703 21.8313 28.1557 24.0628 26.2487 25.9652C24.3465 27.8769 22.1152 29.4298 19.6618 30.5494L14.9074 25.795C14.4811 25.3669 13.9745 25.0273 13.4166 24.7955C12.8587 24.5638 12.2605 24.4446 11.6564 24.4447C10.4253 24.4447 9.26788 24.927 8.39983 25.795L1.89229 32.2912C1.46366 32.7182 1.1237 33.2258 0.891963 33.7847C0.660226 34.3436 0.541289 34.9428 0.541995 35.5478C0.541995 36.779 1.02425 37.9364 1.89229 38.8044L7.92325 44.8354C9.30759 46.2254 11.2196 47.014 13.1826 47.014C13.5968 47.014 13.9939 46.98 14.3854 46.9119C22.0333 45.6524 29.6188 41.5844 35.7406 35.4684C41.8566 29.358 45.9188 21.7782 47.1954 14.1076C47.5812 11.7644 46.8039 9.35315 45.1132 7.65109Z" fill="#2C6F2F"/>
</svg>
